<svg width="30" height="30" viewBox="0 0 30 30" fill="none" xmlns="http://www.w3.org/2000/svg">
<path d="M24.375 3.75H5.625C5.12772 3.75 4.65081 3.94754 4.29917 4.29917C3.94754 4.65081 3.75 5.12772 3.75 5.625V24.375C3.75 24.8723 3.94754 25.3492 4.29917 25.7008C4.65081 26.0525 5.12772 26.25 5.625 26.25H24.375C24.8723 26.25 25.3492 26.0525 25.7008 25.7008C26.0525 25.3492 26.25 24.8723 26.25 24.375V5.625C26.25 5.12772 26.0525 4.65081 25.7008 4.29917C25.3492 3.94754 24.8723 3.75 24.375 3.75Z" stroke="white" stroke-width="2.5" stroke-linecap="round" stroke-linejoin="round"/>
<path d="M11.25 14.375C12.0788 14.375 12.8737 14.0458 13.4597 13.4597C14.0458 12.8737 14.375 12.0788 14.375 11.25C14.375 10.4212 14.0458 9.62634 13.4597 9.04029C12.8737 8.45424 12.0788 8.125 11.25 8.125C10.4212 8.125 9.62634 8.45424 9.04029 9.04029C8.45424 9.62634 8.125 10.4212 8.125 11.25C8.125 12.0788 8.45424 12.8737 9.04029 13.4597C9.62634 14.0458 10.4212 14.375 11.25 14.375ZM17.3687 16.3875C17.4872 16.2289 17.6416 16.1007 17.8193 16.0135C17.9969 15.9263 18.1928 15.8825 18.3907 15.8857C18.5886 15.8889 18.7829 15.9391 18.9576 16.0321C19.1323 16.1251 19.2824 16.2583 19.3956 16.4206L24.88 24.285C25.4575 25.1137 24.8644 26.25 23.855 26.25H10L17.3687 16.3875Z" stroke="white" stroke-width="2.5" stroke-linecap="round" stroke-linejoin="round"/>
</svg>
