<svg width="265" height="237" viewBox="0 0 265 237" fill="none" xmlns="http://www.w3.org/2000/svg">
<g opacity="0.9" clip-path="url(#clip0_27_3524)">
<path opacity="0.6" d="M249.705 3.45459H12.5679V191.548H249.705V3.45459Z" fill="#E0E0E0"/>
<path opacity="0.6" d="M84.2767 3.45459H82.3261V191.548H84.2767V3.45459Z" fill="#E0E0E0"/>
<path opacity="0.6" d="M179.947 3.45459H177.996V191.548H179.947V3.45459Z" fill="#E0E0E0"/>
<path d="M250.306 6.90935H11.9672C10.0638 6.90935 8.5181 5.36117 8.5181 3.45467C8.5181 1.54818 10.0638 0 11.9672 0H250.306C252.209 0 253.755 1.54818 253.755 3.45467C253.755 5.36117 252.209 6.90935 250.306 6.90935Z" fill="#E0E0E0"/>
<path d="M58.4997 51.5767L3.39509 57.3773C1.45793 57.5801 -0.0607538 56.1536 0.00674318 54.1863L0.506221 38.7247C0.566968 36.7574 2.19365 34.9996 4.12406 34.7968L59.2354 28.9962C60.2276 28.8948 61.0105 29.625 60.9768 30.6323L60.3693 49.562C60.3356 50.5693 59.5054 51.4753 58.5132 51.5767H58.4997Z" fill="#E0E0E0"/>
<path d="M57.305 50.7044L5.85875 56.1197C4.86654 56.2211 4.08357 55.4909 4.11732 54.4836L4.66405 37.5618C4.6978 36.5545 5.52801 35.6485 6.52022 35.5404L57.9664 30.1251C58.9586 30.0237 59.7416 30.7539 59.7079 31.7612L59.1611 48.683C59.1274 49.6903 58.2972 50.5963 57.305 50.6977V50.7044Z" fill="white"/>
<path d="M203.922 52.0634L259.121 56.904C261.058 57.073 262.557 55.6195 262.455 53.6522L261.686 38.2042C261.591 36.2368 259.938 34.5061 258.001 34.3371L202.801 29.4965C201.809 29.4086 201.04 30.159 201.087 31.1664L202.025 50.0826C202.073 51.0899 202.923 51.9823 203.922 52.0702V52.0634Z" fill="#E0E0E0"/>
<path d="M205.103 51.1709L256.637 55.687C257.629 55.7749 258.399 55.0245 258.352 54.0171L257.508 37.1088C257.461 36.1015 256.61 35.2091 255.611 35.1212L204.077 30.6051C203.085 30.5173 202.316 31.2677 202.363 32.275L203.206 49.1833C203.254 50.1906 204.104 51.083 205.103 51.1709Z" fill="white"/>
<path d="M102.332 49.0549L159.948 49.0549C160.813 49.0549 161.514 48.3527 161.514 47.4865V28.239C161.514 27.3728 160.813 26.6705 159.948 26.6705L102.332 26.6705C101.467 26.6705 100.766 27.3728 100.766 28.239V47.4865C100.766 48.3527 101.467 49.0549 102.332 49.0549Z" fill="#E0E0E0"/>
<path d="M105.032 48.0544L157.248 48.0544C158.113 48.0544 158.814 47.3522 158.814 46.486V29.2261C158.814 28.3599 158.113 27.6577 157.248 27.6577L105.032 27.6577C104.167 27.6577 103.466 28.3599 103.466 29.2261V46.486C103.466 47.3522 104.167 48.0544 105.032 48.0544Z" fill="white"/>
<path d="M131.133 237C203.411 237 262.003 233.574 262.003 229.347C262.003 225.12 203.411 221.694 131.133 221.694C58.8557 221.694 0.263245 225.12 0.263245 229.347C0.263245 233.574 58.8557 237 131.133 237Z" fill="#F5F5F5"/>
<path d="M70.0619 71.5815C66.9705 71.1758 66.687 77.7607 70.2846 81.3708C73.8822 84.981 66.9098 87.6988 71.9721 93.8036C77.0343 99.9084 94.0368 106.446 96.5072 97.8802C98.9709 89.3146 95.2045 88.4154 93.6319 84.3049C92.0592 80.1945 91.2155 77.6728 92.1132 71.3516C93.0109 65.0372 85.3635 62.049 82.4948 61.542C79.6262 61.0349 65.0604 60.9538 70.0619 71.5815Z" fill="#263238"/>
<path d="M96.487 99.9829C97.3374 102.586 98.1002 105.182 98.8291 107.798C99.5716 110.408 100.267 113.038 100.922 115.674C101.084 116.31 101.266 117.087 101.374 117.439C101.516 117.885 101.725 118.358 101.988 118.825C102.521 119.764 103.257 120.704 104.107 121.59C104.944 122.482 105.883 123.348 106.888 124.145C107.874 124.95 108.954 125.748 109.98 126.451L108.805 128.898C106.085 127.891 103.621 126.539 101.273 124.713C100.118 123.787 99.0046 122.719 98.0597 121.394C97.5872 120.731 97.1484 120.008 96.811 119.19C96.4465 118.27 96.3047 117.73 96.082 117.067C95.245 114.498 94.4283 111.929 93.6251 109.346C92.8084 106.777 92.0187 104.188 91.2627 101.619L96.487 99.9829Z" fill="#FFC3BD"/>
<path d="M94.9278 94.0943C97.2564 94.6893 98.8831 104.276 98.8831 104.276L92.4709 108.643C92.4709 108.643 86.3219 98.9688 88.1174 96.4065C89.9803 93.736 91.5395 93.229 94.9278 94.0943Z" fill="#EA335C"/>
<path d="M94.9278 94.0943C97.2564 94.6893 98.8831 104.276 98.8831 104.276L92.4709 108.643C92.4709 108.643 86.3219 98.9688 88.1174 96.4065C89.9803 93.736 91.5395 93.229 94.9278 94.0943Z" fill="#EA335C"/>
<path opacity="0.3" d="M94.7186 96.2307L96.5005 105.898L92.9029 108.346L94.7186 96.2307Z" fill="black"/>
<path d="M109.217 126.376L114.637 125.044L112.045 130.23C112.045 130.23 108.96 130.365 108.13 128.175L109.217 126.376Z" fill="#FFC3BD"/>
<path d="M116.466 126.626L117.371 130.176L112.045 130.23L114.637 125.044L116.466 126.626Z" fill="#FFC3BD"/>
<path d="M94.9278 94.0944C94.9278 94.0944 97.6142 95.0408 92.2279 128.215H69.3059C69.6907 118.872 69.7042 113.105 65.2426 93.9321C65.2426 93.9321 70.0484 92.8842 74.9757 92.6476C78.8365 92.4583 81.9954 92.3366 85.3837 92.6476C89.852 93.0532 94.9278 94.0944 94.9278 94.0944Z" fill="#EA335C"/>
<path d="M76.0084 80.9043C76.6631 84.2576 77.3178 90.403 74.9757 92.6407C74.9757 92.6407 73.484 108.907 83.892 108.636C95.1978 108.339 85.3837 92.6407 85.3837 92.6407C81.6511 91.7483 81.7456 88.9697 82.3936 86.3669L76.0016 80.9043H76.0084Z" fill="#FFC3BD"/>
<path d="M88.9003 100.612C87.4896 103.566 78.4113 102.64 75.5832 100.95C76.5416 104.911 78.7825 108.772 83.8988 108.636C89.5145 108.494 89.9195 104.546 88.9003 100.612Z" fill="white"/>
<path opacity="0.2" d="M78.6138 83.1353L82.3936 86.3668C82.2384 86.982 82.1169 87.6108 82.0696 88.2192C80.6454 88.0097 78.6813 86.4412 78.5328 84.9471C78.4585 84.2034 78.4855 83.4868 78.607 83.1353H78.6138Z" fill="black"/>
<path d="M72.917 74.9077C74.2265 80.3635 74.6585 82.7027 77.9388 85.0419C82.8728 88.5642 89.2783 85.7653 89.6225 80.0255C89.933 74.8604 87.7461 66.8085 81.9684 65.5578C76.2784 64.3274 71.6076 69.4451 72.917 74.901V74.9077Z" fill="#FFC3BD"/>
<path d="M73.6392 71.9736C76.3189 72.4469 89.744 67.7212 86.6527 65.2739C83.5613 62.8198 78.5193 63.8744 75.8936 65.3618C73.268 66.8491 71.0473 71.5207 73.6392 71.9736Z" fill="#263238"/>
<path d="M81.5364 74.9821C81.6174 75.4283 81.9144 75.7528 82.2114 75.6988C82.5084 75.6447 82.6771 75.239 82.5961 74.7928C82.5151 74.3466 82.2181 74.0221 81.9211 74.0762C81.6309 74.1303 81.4554 74.5359 81.5364 74.9821Z" fill="#263238"/>
<path d="M86.6054 74.0895C86.6864 74.5357 86.9834 74.8603 87.2804 74.8062C87.5706 74.7521 87.7461 74.3464 87.6651 73.9002C87.5841 73.454 87.2871 73.1295 86.9902 73.1836C86.6999 73.2377 86.5244 73.6433 86.6054 74.0895Z" fill="#263238"/>
<path d="M86.8687 73.231L87.8879 72.7307C87.8879 72.7307 87.4829 73.6704 86.8687 73.231Z" fill="#263238"/>
<path d="M85.404 75.0969C85.404 75.0969 86.5042 76.8952 87.5031 77.6795C87.0104 78.3353 85.9574 78.2609 85.9574 78.2609L85.404 75.0969Z" fill="#ED847E"/>
<path d="M83.9258 80.3769C84.162 80.3769 84.4185 80.3567 84.6885 80.3093C84.7628 80.2958 84.81 80.2282 84.7965 80.1538C84.783 80.0795 84.7155 80.0321 84.6413 80.0457C82.6771 80.3905 81.5162 79.1803 81.5027 79.1668C81.4554 79.1127 81.3677 79.1127 81.3137 79.1668C81.2597 79.2141 81.2597 79.302 81.3137 79.3561C81.3609 79.4034 82.2924 80.3837 83.9325 80.3837L83.9258 80.3769Z" fill="#263238"/>
<path d="M72.6808 79.0249C73.1195 80.0999 74.0105 80.8773 74.8947 81.2356C76.2244 81.7765 77.0478 80.6204 76.8116 79.2818C76.5956 78.0717 75.6507 76.341 74.2467 76.3748C72.8698 76.4086 72.1746 77.8012 72.674 79.0317L72.6808 79.0249Z" fill="#FFC3BD"/>
<path d="M78.877 67.8834C81.5566 71.2772 75.3672 75.8812 77.3381 81.3641C83.3386 98.0966 76.4201 99.1512 74.1185 92.6881C71.8168 86.225 69.8797 77.7539 70.3656 73.9882C70.8516 70.2293 77.0411 65.551 78.8838 67.8767L78.877 67.8834Z" fill="#263238"/>
<path d="M79.7275 73.4407C79.795 73.4204 79.8557 73.3731 79.8895 73.3055C80.4227 72.2373 81.4014 72.1156 81.4081 72.1156C81.5499 72.0953 81.6579 71.9669 81.6444 71.8182C81.6309 71.6694 81.4959 71.568 81.3474 71.5815C81.2934 71.5815 80.0717 71.737 79.4102 73.0689C79.3427 73.2041 79.3967 73.3596 79.5317 73.4272C79.5925 73.461 79.6667 73.461 79.7275 73.4407Z" fill="#263238"/>
<path d="M88.4548 71.3516C88.5223 71.3516 88.5898 71.3246 88.6371 71.2773C88.7451 71.1758 88.7451 71.0068 88.6438 70.8987C87.6246 69.8237 86.4097 70.0401 86.3557 70.0468C86.2072 70.0739 86.1127 70.2158 86.1397 70.3578C86.1667 70.4998 86.3084 70.6012 86.4502 70.5742C86.4974 70.5674 87.4424 70.4119 88.2523 71.2705C88.3063 71.3246 88.3738 71.3516 88.4481 71.3516H88.4548Z" fill="#263238"/>
<path d="M68.0235 101.95C67.6658 103.099 67.281 104.337 66.93 105.54C66.5858 106.757 66.2416 107.974 65.9176 109.191C65.2696 111.625 64.7094 114.085 64.2774 116.519C64.0749 117.736 63.8792 118.96 63.7644 120.156L63.6834 120.995C63.6632 121.096 63.6564 121.198 63.6699 121.326C63.6699 121.576 63.8049 121.921 64.0142 122.293C64.4394 123.05 65.2359 123.868 66.1133 124.625C66.9975 125.362 68.0302 126.099 69.0157 126.735L68.0437 129.27C66.6263 128.932 65.3574 128.465 64.0614 127.803C62.779 127.14 61.5033 126.336 60.3761 125.011C59.8293 124.341 59.3029 123.537 58.9991 122.523C58.8506 122.022 58.7629 121.482 58.7494 120.934C58.7426 120.778 58.7494 120.691 58.7494 120.609V120.353L58.7764 119.832C58.8169 118.446 58.9519 117.094 59.1206 115.749C59.4514 113.058 59.9981 110.448 60.6123 107.859C60.9161 106.561 61.2535 105.283 61.6315 104.005C62.0028 102.721 62.3807 101.484 62.8397 100.172L68.0167 101.95H68.0235Z" fill="#FFC3BD"/>
<path d="M65.2426 93.9253C62.9477 94.6216 60.1871 102.545 60.1871 102.545L69.0967 108.927C69.0967 108.927 72.3433 102.315 71.3781 99.3405C70.3724 96.2442 67.8615 93.1275 65.2359 93.9253H65.2426Z" fill="#EA335C"/>
<path d="M68.9617 126.863L68.3745 128.918C68.2935 129.08 68.4825 129.243 68.7457 129.243H92.3359C92.5452 129.243 92.7139 129.141 92.7274 129.013L92.9366 126.958C92.9501 126.816 92.7746 126.694 92.5452 126.694H69.3329C69.1642 126.694 69.0089 126.761 68.9617 126.87V126.863Z" fill="#263238"/>
<path d="M72.0801 129.466H71.4591C71.3376 129.466 71.2431 129.405 71.2499 129.324L71.5401 126.653C71.5468 126.572 71.6548 126.511 71.7831 126.511H72.4041C72.5255 126.511 72.62 126.572 72.6133 126.653L72.3231 129.324C72.3163 129.405 72.2083 129.466 72.0801 129.466Z" fill="white"/>
<path d="M90.5945 129.466H89.9735C89.852 129.466 89.7575 129.405 89.7643 129.324L90.0545 126.653C90.0613 126.572 90.1693 126.511 90.2975 126.511H90.9185C91.04 126.511 91.1345 126.572 91.1277 126.653L90.8375 129.324C90.8307 129.405 90.7227 129.466 90.5945 129.466Z" fill="white"/>
<path d="M81.3407 129.466H80.7197C80.5982 129.466 80.5037 129.405 80.5104 129.324L80.8007 126.653C80.8074 126.572 80.9154 126.511 81.0437 126.511H81.6646C81.7861 126.511 81.8806 126.572 81.8739 126.653L81.5836 129.324C81.5769 129.405 81.4689 129.466 81.3407 129.466Z" fill="white"/>
<path d="M81.7996 74.1236L82.8188 73.6233C82.8188 73.6233 82.4139 74.563 81.7996 74.1236Z" fill="#263238"/>
<path d="M68.253 126.363L74.2197 125.105L71.4996 130.169C71.4996 130.169 67.875 130.203 66.7478 128.147L68.253 126.363Z" fill="#FFC3BD"/>
<path d="M78.4788 127.201L75.9746 131.318L70.5816 130.108L74.2197 125.105L78.4788 127.201Z" fill="#FFC3BD"/>
<path d="M155.554 118.351C155.702 118.689 155.803 119.048 155.911 119.392C156.033 119.73 156.134 120.089 156.235 120.434C156.458 121.116 156.661 121.813 156.904 122.482C157.153 123.151 157.39 123.834 157.666 124.497C157.795 124.835 157.936 125.173 158.078 125.504L158.287 126.004L158.388 126.248C158.409 126.322 158.469 126.423 158.422 126.451L156.654 129.297C156.431 129.209 156.323 129.182 156.175 129.128L155.776 128.972C155.527 128.857 155.277 128.742 155.047 128.607C154.575 128.35 154.15 128.046 153.738 127.728C152.928 127.073 152.219 126.329 151.612 125.518C151.308 125.112 151.011 124.706 150.761 124.274C150.485 123.854 150.269 123.408 150.046 122.969C149.816 122.529 149.654 122.07 149.472 121.61C149.317 121.15 149.175 120.684 149.06 120.21L155.547 118.351H155.554Z" fill="#FF8B7B"/>
<path d="M158.8 84.8255C158.8 84.8255 154.352 101.362 159.549 136.95C169.249 136.74 185.549 136.362 190.274 136.26C190.389 131.305 186.744 107.007 191.01 83.5815C191.01 83.5815 186.973 82.8041 181.709 82.6621C177.591 82.5539 171.631 82.5472 168.02 82.9528C163.262 83.4937 158.793 84.8255 158.793 84.8255H158.8Z" fill="#F5F5F5"/>
<path d="M180.021 67.2478C179.252 71.676 178.563 79.7752 181.709 82.6552C181.709 82.6552 180.966 85.9003 174.73 87.5432C172.867 88.0367 170.842 87.7054 169.357 86.475C167.332 84.7916 168.02 82.9527 168.02 82.9527C172.907 81.6749 172.705 78.0242 171.773 74.6169L180.021 67.2546V67.2478Z" fill="#FF8B7B"/>
<path d="M170.227 89.274C170.227 89.274 170.41 89.8554 170.707 90.4571C170.862 90.7681 171.186 90.9641 171.53 90.9709C172.124 90.9776 172.988 90.9641 173.501 90.9573C173.785 90.9573 174.048 90.8221 174.223 90.599C174.541 90.1934 174.932 89.5579 174.986 89.2807C175.06 88.8886 172.583 87.0632 172.583 87.0632C172.583 87.0632 170.106 88.5303 170.221 89.2807L170.227 89.274Z" fill="#EA335C"/>
<path d="M180.932 81.5397C180.156 82.6687 176.093 85.7516 172.59 87.0564C174.021 88.2124 174.811 89.7741 175.202 90.9437C175.202 90.9437 182.093 86.0829 183.133 82.5876C182.134 82.1549 180.926 81.533 180.926 81.533L180.932 81.5397Z" fill="white"/>
<path d="M168.709 82.2158C168.79 83.791 169.087 85.7516 172.59 87.0632C171.159 88.2192 170.369 89.7809 169.978 90.9505C169.978 90.9505 165.982 87.4282 166.292 82.9527C167.291 82.52 168.709 82.2226 168.709 82.2226V82.2158Z" fill="white"/>
<path d="M174.73 104.884C174.534 100.943 173.92 93.4451 173.353 90.0107H171.719C170.538 92.6609 168.851 102.91 168.459 104.83C168.068 106.743 169.735 111.084 171.739 115.194C173.238 110.651 174.918 108.826 174.723 104.884H174.73Z" fill="#EA335C"/>
<path opacity="0.2" d="M176.66 70.2563L171.78 74.6102C172.003 75.4147 172.178 76.2395 172.252 77.0372C174.122 76.7263 176.653 74.6102 176.815 72.6361C176.896 71.6558 176.835 70.7093 176.66 70.2563Z" fill="black"/>
<path d="M173.515 54.9501C175.519 57.1203 173.785 59.6082 167.406 62.6302C165.887 59.2769 166.812 53.6724 168.878 52.7056C170.943 51.7389 171.773 53.0572 173.515 54.9501Z" fill="#263238"/>
<path d="M182.701 61.792C181.081 67.552 180.42 71.0067 176.829 73.3662C171.422 76.9087 164.807 72.6766 164.679 66.5447C164.564 61.028 167.237 52.53 173.447 51.4483C179.562 50.3801 184.328 56.032 182.701 61.792Z" fill="#FF8B7B"/>
<path d="M173.616 61.5013C173.515 61.9745 173.177 62.3058 172.867 62.2382C172.556 62.1706 172.387 61.7311 172.489 61.2579C172.59 60.7846 172.927 60.4534 173.238 60.521C173.548 60.5886 173.717 61.028 173.616 61.5013Z" fill="#263238"/>
<path d="M168.25 60.3384C168.149 60.8117 167.811 61.1429 167.501 61.0753C167.19 61.0077 167.021 60.5683 167.123 60.095C167.224 59.6218 167.561 59.2905 167.872 59.3581C168.182 59.4257 168.351 59.8652 168.25 60.3384Z" fill="#263238"/>
<path d="M169.964 60.947C169.964 60.947 168.29 63.4552 166.819 64.5234C167.487 65.4902 168.992 65.4428 168.992 65.4428L169.964 60.9538V60.947Z" fill="#FF5652"/>
<path d="M169.917 67.0517C172.151 67.5385 173.508 66.2269 173.562 66.1728C173.616 66.1187 173.616 66.0241 173.562 65.97C173.508 65.9159 173.413 65.9159 173.359 65.97C173.346 65.9835 172.05 67.2275 169.978 66.7745C169.903 66.761 169.822 66.8083 169.809 66.8827C169.795 66.9571 169.843 67.0314 169.917 67.0517Z" fill="#263238"/>
<path d="M175.492 60.122C175.553 60.1355 175.62 60.1288 175.681 60.1017C175.823 60.0341 175.884 59.8651 175.823 59.7231C175.161 58.2899 173.859 58.0871 173.805 58.0803C173.65 58.06 173.501 58.1682 173.481 58.3237C173.461 58.4792 173.569 58.6212 173.724 58.6482C173.764 58.655 174.777 58.824 175.31 59.9665C175.35 60.0477 175.418 60.1017 175.506 60.122H175.492Z" fill="#263238"/>
<path d="M166.184 57.9791C166.292 58.0061 166.407 57.9655 166.475 57.8776C167.258 56.8771 168.311 56.9582 168.317 56.9582C168.473 56.9717 168.614 56.8568 168.628 56.7013C168.641 56.5458 168.52 56.4038 168.371 56.3903C168.317 56.3903 167.001 56.2821 166.029 57.5261C165.935 57.6478 165.955 57.8303 166.076 57.925C166.11 57.952 166.144 57.9655 166.184 57.9791Z" fill="#263238"/>
<path d="M182.66 82.0874C182.66 82.0874 174.318 104.972 170.977 113.281C170.16 124.625 171.78 138.478 171.78 138.478H191.361C191.361 138.478 193.386 87.8474 191.361 83.2637C189.295 82.5944 184.989 81.7967 182.66 82.0874Z" fill="#263238"/>
<path d="M166.535 82.5943C166.535 82.5943 168.007 100.774 170.653 111.827C173.305 122.888 172.428 138.478 172.428 138.478H156.627C156.627 138.478 156.303 89.0845 158.328 84.5076C159.941 83.3448 164.213 82.3104 166.542 82.5943H166.535Z" fill="#263238"/>
<path d="M178.003 109.157C170.484 108.717 162.87 108.251 160.319 109.157C160.953 109.103 163.694 128.499 163.059 128.553H180.743C180.156 120.778 179.934 111.564 178.003 109.157Z" fill="white"/>
<path d="M198.245 119.534C197.84 120.866 197.273 122.164 196.47 123.314C195.708 124.483 194.749 125.511 193.703 126.376C192.663 127.255 191.516 127.965 190.308 128.499L189.39 128.857C189.079 128.959 188.762 129.06 188.445 129.148C187.79 129.317 187.203 129.425 186.42 129.486L185.394 126.302C185.509 126.153 185.732 125.977 185.907 125.801L186.467 125.281C186.832 124.936 187.189 124.585 187.527 124.233C188.215 123.537 188.816 122.807 189.363 122.076C189.653 121.725 189.869 121.326 190.126 120.968C190.335 120.576 190.578 120.217 190.76 119.825C191.185 119.068 191.455 118.263 191.82 117.472L198.245 119.541V119.534Z" fill="#FF8B7B"/>
<path d="M187.972 121.116L186.184 123.584C186.184 123.584 190.47 124.956 190.47 128.553H192.596C192.596 128.553 192.954 122.78 187.979 121.116H187.972Z" fill="white"/>
<path d="M190.497 83.0137C192.211 83.0204 194.29 84.0954 195.6 87.0565C196.909 90.0244 200.885 104.479 201.485 110.509C202.086 116.54 203.888 128.553 197.699 128.553C191.509 128.553 191.833 128.553 191.833 128.553C191.833 123.537 186.879 121.664 186.879 121.664C186.879 121.664 189.336 119.622 191.388 117.425C191.577 114.647 189.491 88.3951 190.51 83.0137H190.497Z" fill="#263238"/>
<path d="M187.729 125.991L182.91 121.664L181.472 129.195C181.472 129.195 185.644 131.467 187.507 130.034L187.729 125.984V125.991Z" fill="#FF8B7B"/>
<path d="M177.261 123.51L175.965 129.202H181.466L182.91 121.671L177.261 123.51Z" fill="#FF8B7B"/>
<path d="M155.959 123.584L160.677 122.354L161.986 129.202C161.986 129.202 157.815 131.474 155.952 130.04L155.965 123.584H155.959Z" fill="#FF8B7B"/>
<path d="M156.58 121.116L157.72 122.759C157.72 122.759 154.393 124.956 154.393 128.553H151.956C151.956 128.553 151.598 122.78 156.573 121.116H156.58Z" fill="white"/>
<path d="M159.421 83.8992C157.707 83.9059 155.675 85.1634 154.366 88.1313C153.056 91.0992 147.474 104.478 146.874 110.516C146.273 116.553 144.471 128.56 150.66 128.56C156.85 128.56 152.719 128.56 152.719 128.56C152.719 123.543 157.714 121.123 157.714 121.123C157.714 121.123 157.538 119.514 157.018 116.986C156.829 114.207 160.434 89.2874 159.414 83.9059L159.421 83.8992Z" fill="#263238"/>
<path d="M166.218 124.416L167.487 129.202H161.986L160.677 122.354L166.218 124.416Z" fill="#FF8B7B"/>
<path d="M181.499 56.113C178.57 56.4578 178.266 59.473 181.155 65.9226C184.483 64.3677 187.426 59.5068 186.481 57.4245C185.536 55.349 184.051 55.8087 181.499 56.113Z" fill="#263238"/>
<path d="M184.868 56.1469C184.868 56.1469 186.487 56.0049 186.697 54.5852C186.953 55.5858 186.906 56.8838 184.868 56.1469Z" fill="#263238"/>
<path d="M185.104 58.3576C184.665 59.9193 177.956 56.4038 175.647 55.3694C173.339 54.335 165.104 55.5925 166.913 50.3125C168.52 45.6206 174.345 48.1626 174.345 48.1626C172.853 48.0274 172.563 49.1429 174.46 49.2173C176.363 49.2916 179.569 49.2849 181.074 51.3063C182.579 53.3277 186.724 52.5638 185.104 58.3508V58.3576Z" fill="#263238"/>
<path d="M184.469 67.0654C183.72 68.4919 182.377 69.4384 181.108 69.8102C179.198 70.3713 178.219 68.6609 178.732 66.8423C179.191 65.2062 180.744 62.9414 182.674 63.178C184.571 63.4146 185.333 65.4293 184.476 67.0654H184.469Z" fill="#FF8B7B"/>
<path d="M52.7219 135.313H233.418V224.33C233.418 225.96 232.102 227.278 230.475 227.278H55.6715C54.0449 227.278 52.7287 225.96 52.7287 224.33V135.313H52.7219Z" fill="#EA335C"/>
<path opacity="0.2" d="M52.7219 135.313H233.418V224.33C233.418 225.96 232.102 227.278 230.475 227.278H55.6715C54.0449 227.278 52.7287 225.96 52.7287 224.33V135.313H52.7219Z" fill="black"/>
<path d="M29.8607 135.313H210.55V224.33C210.55 225.96 209.234 227.278 207.607 227.278H32.8035C31.1769 227.278 29.8607 225.96 29.8607 224.33V135.313Z" fill="#EA335C"/>
<path d="M234.91 128.553H48.0579V135.307H234.91C236.773 135.307 238.285 133.792 238.285 131.926C238.285 130.061 236.773 128.546 234.91 128.546V128.553Z" fill="#EA335C"/>
<path opacity="0.3" d="M234.91 128.553H48.0579V135.307H234.91C236.773 135.307 238.285 133.792 238.285 131.926C238.285 130.061 236.773 128.546 234.91 128.546V128.553Z" fill="white"/>
<path d="M210.84 128.553H27.3633C25.5004 128.553 23.9884 130.068 23.9884 131.934C23.9884 133.799 25.5004 135.314 27.3633 135.314H210.84C212.703 135.314 214.215 133.799 214.215 131.934C214.215 130.068 212.703 128.553 210.84 128.553Z" fill="#EA335C"/>
<path opacity="0.6" d="M210.84 128.553H27.3633C25.5004 128.553 23.9884 130.068 23.9884 131.934C23.9884 133.799 25.5004 135.314 27.3633 135.314H210.84C212.703 135.314 214.215 133.799 214.215 131.934C214.215 130.068 212.703 128.553 210.84 128.553Z" fill="white"/>
<path opacity="0.7" d="M71.6211 128.553H59.3164L55.6445 135.314H67.9492L71.6211 128.553Z" fill="white"/>
<path opacity="0.7" d="M83.3588 128.553H77.2031L73.5312 135.314H79.687L83.3588 128.553Z" fill="white"/>
<path opacity="0.7" d="M145.193 128.553H117.931L114.252 135.314H141.521L145.193 128.553Z" fill="white"/>
<path opacity="0.7" d="M156.924 128.553H150.775L147.103 135.314H153.252L156.924 128.553Z" fill="white"/>
<path opacity="0.7" d="M195.6 128.553H193.264L189.586 135.314H191.928L195.6 128.553Z" fill="white"/>
<path d="M110.364 119.453H104.755C104.569 119.453 104.418 119.604 104.418 119.791V128.215C104.418 128.402 104.569 128.553 104.755 128.553H110.364C110.551 128.553 110.702 128.402 110.702 128.215V119.791C110.702 119.604 110.551 119.453 110.364 119.453Z" fill="#EA335C"/>
<path d="M103.891 127.471C102.595 127.471 101.583 125.95 101.583 124.003C101.583 122.056 102.595 120.535 103.891 120.535C105.187 120.535 106.2 122.056 106.2 124.003C106.2 125.95 105.187 127.471 103.891 127.471ZM103.891 121.549C103.277 121.549 102.595 122.556 102.595 124.003C102.595 125.45 103.277 126.457 103.891 126.457C104.506 126.457 105.187 125.45 105.187 124.003C105.187 122.556 104.506 121.549 103.891 121.549Z" fill="#EA335C"/>
<path d="M51.9052 73.4675C53.5724 73.4675 54.9291 70.716 54.9291 67.3222C54.9291 63.9283 53.5724 61.1768 51.9052 61.1768H47.6529V73.4675H51.9052Z" fill="#EA335C"/>
<path opacity="0.8" d="M54.4228 63.9285H47.6529V66.3555H54.8818C54.8211 65.4699 54.6523 64.6451 54.4161 63.9285H54.4228Z" fill="white"/>
<path d="M50.6835 67.3222C50.6835 70.716 49.3268 73.4675 47.6596 73.4675C45.9924 73.4675 44.6358 70.716 44.6358 67.3222C44.6358 63.9283 45.9924 61.1768 47.6596 61.1768C49.3268 61.1768 50.6835 63.9283 50.6835 67.3222Z" fill="#EA335C"/>
<path opacity="0.2" d="M50.6835 67.3222C50.6835 70.716 49.3268 73.4675 47.6596 73.4675C45.9924 73.4675 44.6358 70.716 44.6358 67.3222C44.6358 63.9283 45.9924 61.1768 47.6596 61.1768C49.3268 61.1768 50.6835 63.9283 50.6835 67.3222Z" fill="black"/>
<path d="M3.36809 58.7837H18.0959C19.1151 58.7837 19.9386 59.6085 19.9386 60.6293V74.0221C19.9386 75.043 19.1151 75.8678 18.0959 75.8678H3.36809C2.34888 75.8678 1.52542 75.043 1.52542 74.0221V60.6293C1.52542 59.6085 2.34888 58.7837 3.36809 58.7837Z" fill="#EA335C"/>
<path opacity="0.2" d="M3.36809 58.7837H18.0959C19.1151 58.7837 19.9386 59.6085 19.9386 60.6293V74.0221C19.9386 75.043 19.1151 75.8678 18.0959 75.8678H3.36809C2.34888 75.8678 1.52542 75.043 1.52542 74.0221V60.6293C1.52542 59.6085 2.34888 58.7837 3.36809 58.7837Z" fill="black"/>
<path d="M16.1588 58.7837H43.0293C44.0485 58.7837 44.872 59.6085 44.872 60.6293V74.0221C44.872 75.043 44.0485 75.8678 43.0293 75.8678H16.1588C15.1396 75.8678 14.3161 75.043 14.3161 74.0221V60.6293C14.3161 59.6085 15.1396 58.7837 16.1588 58.7837Z" fill="#EA335C"/>
<path d="M13.2969 54.3215L9.17282 58.7835H21.086L25.2034 54.3215H13.2969Z" fill="#EA335C"/>
<path opacity="0.2" d="M13.2969 54.3215L9.17282 58.7835H21.086L25.2034 54.3215H13.2969Z" fill="black"/>
<path d="M37.2178 58.7835H17.448L21.572 54.3215H33.1005L37.2178 58.7835Z" fill="#EA335C"/>
<path d="M8.34263 54.3216L4.22531 43.5249H20.2559L24.3732 54.3216H8.34263Z" fill="#EA335C"/>
<path opacity="0.2" d="M8.34263 54.3216L4.22531 43.5249H20.2559L24.3732 54.3216H8.34263Z" fill="black"/>
<path d="M40.5049 43.5249H16.6178L20.7351 54.3216H36.3876L40.5049 43.5249Z" fill="#EA335C"/>
<path d="M9.64532 52.6248L6.8172 45.2219H15.3151L18.1432 52.6248H9.64532Z" fill="#EA335C"/>
<path opacity="0.2" d="M30.2049 67.7751H28.9765V73.4676H30.2049V67.7751Z" fill="black"/>
<path opacity="0.2" d="M34.329 67.7751H33.1005V73.4676H34.329V67.7751Z" fill="black"/>
<path opacity="0.2" d="M38.4463 67.7751H37.2178V73.4676H38.4463V67.7751Z" fill="black"/>
<path opacity="0.2" d="M42.5636 67.7751H41.3352V73.4676H42.5636V67.7751Z" fill="black"/>
<path opacity="0.2" d="M28.1462 67.7751H26.9178V73.4676H28.1462V67.7751Z" fill="black"/>
<path opacity="0.2" d="M32.2636 67.7751H31.0351V73.4676H32.2636V67.7751Z" fill="black"/>
<path opacity="0.2" d="M36.3876 67.7751H35.1592V73.4676H36.3876V67.7751Z" fill="black"/>
<path opacity="0.2" d="M40.5049 67.7751H39.2765V73.4676H40.5049V67.7751Z" fill="black"/>
<path d="M44.8652 69.6546H46.4177C47.7001 69.6546 48.7463 68.6134 48.7463 67.3222C48.7463 66.0376 47.7069 64.9897 46.4177 64.9897H44.8652V69.6478V69.6546Z" fill="#EA335C"/>
<path opacity="0.7" d="M44.8652 69.6546H46.4177C47.7001 69.6546 48.7463 68.6134 48.7463 67.3222C48.7463 66.0376 47.7069 64.9897 46.4177 64.9897H44.8652V69.6478V69.6546Z" fill="white"/>
<path opacity="0.8" d="M11.4205 61.1768H4.42778C3.81643 61.1768 3.32083 61.6732 3.32083 62.2855V64.4692C3.32083 65.0815 3.81643 65.5779 4.42778 65.5779H11.4205C12.0318 65.5779 12.5274 65.0815 12.5274 64.4692V62.2855C12.5274 61.6732 12.0318 61.1768 11.4205 61.1768Z" fill="#EA335C"/>
<path d="M34.9567 75.8677H10.732V77.2942H34.9567V75.8677Z" fill="#EA335C"/>
<path opacity="0.7" d="M34.9567 75.8677H10.732V77.2942H34.9567V75.8677Z" fill="white"/>
<path d="M33.3705 80.1336H12.3114C10.7388 80.1336 9.46982 78.8558 9.46982 77.2874H36.2121C36.2121 78.8626 34.9364 80.1336 33.3705 80.1336Z" fill="#EA335C"/>
<path d="M30.4951 80.1335H15.1868V84.724H30.4951V80.1335Z" fill="#EA335C"/>
<path d="M29.4422 111.672H16.2398C14.6806 111.672 13.4184 110.408 13.4184 108.846C13.4184 107.284 14.6806 106.02 16.2398 106.02H29.4422C31.0014 106.02 32.2636 107.284 32.2636 108.846C32.2636 110.408 31.0014 111.672 29.4422 111.672Z" fill="#EA335C"/>
<path d="M26.9178 84.731H18.7642V106.013H26.9178V84.731Z" fill="#EA335C"/>
<path opacity="0.7" d="M26.9178 84.731H18.7642V106.013H26.9178V84.731Z" fill="white"/>
<path d="M20.5258 111.672H25.1629V228.063C25.1629 229.34 24.1302 230.375 22.8545 230.375H22.841C21.5653 230.375 20.5326 229.34 20.5326 228.063V111.672H20.5258Z" fill="#EA335C"/>
<path opacity="0.2" d="M20.5258 111.672H25.1629V228.063C25.1629 229.34 24.1302 230.375 22.8545 230.375H22.841C21.5653 230.375 20.5326 229.34 20.5326 228.063V111.672H20.5258Z" fill="black"/>
<path d="M10.948 230.368C9.59805 230.368 8.53835 229.219 8.64634 227.873L17.9204 111.672H22.5575L13.2496 228.245C13.1551 229.448 12.1494 230.375 10.948 230.375V230.368Z" fill="#EA335C"/>
<path opacity="0.2" d="M10.948 230.368C9.59805 230.368 8.53835 229.219 8.64634 227.873L17.9204 111.672H22.5575L13.2496 228.245C13.1551 229.448 12.1494 230.375 10.948 230.375V230.368Z" fill="black"/>
<path d="M34.734 230.368C36.0839 230.368 37.1436 229.219 37.0356 227.873L27.7615 111.672H23.1245L32.4323 228.245C32.5268 229.448 33.5325 230.375 34.734 230.375V230.368Z" fill="#EA335C"/>
<path opacity="0.2" d="M34.734 230.368C36.0839 230.368 37.1436 229.219 37.0356 227.873L27.7615 111.672H23.1245L32.4323 228.245C32.5268 229.448 33.5325 230.375 34.734 230.375V230.368Z" fill="black"/>
<path d="M220.985 25.2037H220.196C217.793 25.2037 215.45 23.2363 214.978 20.8296L212.595 8.61313C212.13 6.20635 213.709 4.23901 216.105 4.23901H216.895C219.298 4.23901 221.64 6.20635 222.112 8.61313L224.495 20.8296C224.961 23.2363 223.381 25.2037 220.985 25.2037Z" fill="#EA335C"/>
<path opacity="0.5" d="M220.985 25.2037H220.196C217.793 25.2037 215.45 23.2363 214.978 20.8296L212.595 8.61313C212.13 6.20635 213.709 4.23901 216.105 4.23901H216.895C219.298 4.23901 221.64 6.20635 222.112 8.61313L224.495 20.8296C224.961 23.2363 223.381 25.2037 220.985 25.2037Z" fill="white"/>
<path d="M265 22.3844H220.303L217.313 7.05811H262.01L265 22.3844Z" fill="#EA335C"/>
<path opacity="0.2" d="M265 22.3844H220.303L217.313 7.05811H262.01L265 22.3844Z" fill="black"/>
<path d="M256.86 1.42651H212.163L217.313 7.0581H262.01L256.86 1.42651Z" fill="#EA335C"/>
<path d="M262.05 28.0161H217.347L220.303 22.3845H265L262.05 28.0161Z" fill="#EA335C"/>
<path opacity="0.4" d="M262.05 28.0161H217.347L220.303 22.3845H265L262.05 28.0161Z" fill="black"/>
<path d="M212.163 1.42651H210.746L215.896 7.0581L218.886 22.3844L215.936 28.016H217.347L220.304 22.3844L217.313 7.0581L212.163 1.42651Z" fill="#EA335C"/>
<path opacity="0.5" d="M212.163 1.42651H210.746L215.896 7.0581L218.886 22.3844L215.936 28.016H217.347L220.304 22.3844L217.313 7.0581L212.163 1.42651Z" fill="black"/>
<path opacity="0.4" d="M241.153 18.3685C243.163 18.3685 244.791 16.737 244.791 14.7245C244.791 12.712 243.163 11.0806 241.153 11.0806C239.144 11.0806 237.515 12.712 237.515 14.7245C237.515 16.737 239.144 18.3685 241.153 18.3685Z" fill="black"/>
<path d="M242.625 220.626C241.815 220.626 241.16 219.963 241.16 219.159V16.1917C241.16 15.3804 241.822 14.7246 242.625 14.7246C243.435 14.7246 244.089 15.3871 244.089 16.1917V219.159C244.089 219.97 243.428 220.626 242.625 220.626Z" fill="#EA335C"/>
<path opacity="0.5" d="M242.625 220.626C241.815 220.626 241.16 219.963 241.16 219.159V16.1917C241.16 15.3804 241.822 14.7246 242.625 14.7246C243.435 14.7246 244.089 15.3871 244.089 16.1917V219.159C244.089 219.97 243.428 220.626 242.625 220.626Z" fill="black"/>
<path d="M243.394 220.957H241.849V230.368H243.394V220.957Z" fill="#EA335C"/>
<path opacity="0.2" d="M243.394 220.957H241.849V230.368H243.394V220.957Z" fill="black"/>
<path d="M236.739 230.368H234.809L240.526 220.957H242.449L236.739 230.368Z" fill="#EA335C"/>
<path opacity="0.2" d="M236.739 230.368H234.809L240.526 220.957H242.449L236.739 230.368Z" fill="black"/>
<path d="M248.51 230.368H250.434L244.724 220.957H242.793L248.51 230.368Z" fill="#EA335C"/>
<path opacity="0.2" d="M248.51 230.368H250.434L244.724 220.957H242.793L248.51 230.368Z" fill="black"/>
<path d="M244.643 221.687H240.6C239.797 221.687 239.135 221.025 239.135 220.22C239.135 219.416 239.797 218.753 240.6 218.753H244.643C245.446 218.753 246.108 219.416 246.108 220.22C246.108 221.025 245.446 221.687 244.643 221.687Z" fill="#EA335C"/>
</g>
<defs>
<clipPath id="clip0_27_3524">
<rect width="265" height="237" fill="white"/>
</clipPath>
</defs>
</svg>
