<svg width="39" height="21" viewBox="0 0 39 21" fill="none" xmlns="http://www.w3.org/2000/svg">
<g clip-path="url(#clip0_27_3709)">
<path d="M14.6453 0.983379C13.4543 0.327793 11.9609 0 10.164 0L0.389433 0.253924L0.357295 1.84026L2.69578 2.06002V18.8513C2.31202 18.9769 1.93204 19.109 1.55868 19.2548C1.01706 19.4663 0.498134 19.7101 0 19.9843L0.194716 20.9991H10.4892L10.5222 19.4451L6.65817 18.9529V13.3546H10.457C12.1235 13.3333 13.5309 13.0166 14.6784 12.4026C15.8259 11.7895 16.7021 10.9751 17.309 9.9603C17.9149 8.94552 18.2183 7.86704 18.2183 6.72484C18.2183 5.58264 17.9205 4.50416 17.325 3.48938C16.7295 2.47461 15.8363 1.63897 14.6463 0.983379H14.6453ZM13.5574 8.8024C13.2653 9.4903 12.7946 10.0508 12.1452 10.4838C11.4958 10.9178 10.6404 11.1339 9.57986 11.1339C9.34166 11.1339 9.00611 11.1182 8.57319 11.0859C8.14028 11.0545 7.67429 11.0065 7.1771 10.9428C7.00034 10.9206 6.82925 10.892 6.65722 10.8643V2.62604L11.7558 2.15697C12.2539 2.4109 12.6698 2.77562 13.0063 3.25115C13.3419 3.72669 13.5905 4.25577 13.753 4.83749C13.9156 5.41921 13.9969 6.01662 13.9969 6.62973C13.9969 7.39151 13.8504 8.11542 13.5583 8.8024H13.5574Z" fill="white"/>
<path d="M36.8591 19.2031L32.5006 12.2955C32.839 12.1681 33.1604 12.0203 33.4629 11.8486C34.599 11.2041 35.4649 10.3786 36.0603 9.37396C36.6558 8.37027 36.9536 7.33887 36.9536 6.2807C36.9536 5.22253 36.6502 4.1819 36.0443 3.21976C35.4374 2.25762 34.5348 1.48015 33.3324 0.888273C32.131 0.296399 30.6423 0 28.8672 0L19.1578 0.253924L19.1257 1.84026L21.4642 2.06002V18.831C21.0587 18.9631 20.657 19.1016 20.2628 19.2558C19.7212 19.4672 19.2023 19.711 18.7041 19.9852L18.8988 21H28.6082L28.6413 19.446L25.4266 19.036V12.8726L28.715 12.8513L33.2521 21H38.9669L38.9991 19.446L36.8591 19.2031ZM26.2867 10.5956C26.0031 10.5568 25.7158 10.5078 25.4256 10.4515V2.63158L30.5242 2.15697C31.304 2.57987 31.8721 3.16159 32.2293 3.90212C32.5866 4.64266 32.7653 5.44598 32.7653 6.31302C32.7653 6.84211 32.6887 7.36565 32.5384 7.88366C32.3863 8.40259 32.132 8.87812 31.7747 9.31117C31.4174 9.74515 30.9193 10.0886 30.2812 10.3426C29.6423 10.5965 28.8473 10.723 27.8945 10.723C27.4399 10.723 26.9039 10.6805 26.2867 10.5965V10.5956Z" fill="white"/>
</g>
<defs>
<clipPath id="clip0_27_3709">
<rect width="39" height="21" fill="white"/>
</clipPath>
</defs>
</svg>
