<svg width="30" height="30" viewBox="0 0 30 30" fill="none" xmlns="http://www.w3.org/2000/svg">
<path d="M24.375 6.09375H21.3773L19.9219 3.90703C19.7932 3.71423 19.6189 3.55621 19.4145 3.44703C19.21 3.33786 18.9818 3.28091 18.75 3.28125H11.25C11.0182 3.28091 10.79 3.33786 10.5855 3.44703C10.3811 3.55621 10.2068 3.71423 10.0781 3.90703L8.62148 6.09375H5.625C4.75476 6.09375 3.92016 6.43945 3.30481 7.05481C2.68945 7.67016 2.34375 8.50476 2.34375 9.375V22.5C2.34375 23.3702 2.68945 24.2048 3.30481 24.8202C3.92016 25.4356 4.75476 25.7813 5.625 25.7813H24.375C24.8059 25.7813 25.2326 25.6964 25.6307 25.5315C26.0288 25.3666 26.3905 25.1249 26.6952 24.8202C26.9999 24.5155 27.2416 24.1538 27.4065 23.7557C27.5714 23.3576 27.6562 22.9309 27.6562 22.5V9.375C27.6562 8.9441 27.5714 8.51742 27.4065 8.11932C27.2416 7.72122 26.9999 7.3595 26.6952 7.05481C26.3905 6.75012 26.0288 6.50842 25.6307 6.34352C25.2326 6.17862 24.8059 6.09375 24.375 6.09375ZM24.8438 22.5C24.8438 22.6243 24.7944 22.7436 24.7065 22.8315C24.6185 22.9194 24.4993 22.9688 24.375 22.9688H5.625C5.50068 22.9688 5.38145 22.9194 5.29354 22.8315C5.20564 22.7436 5.15625 22.6243 5.15625 22.5V9.375C5.15625 9.25068 5.20564 9.13145 5.29354 9.04354C5.38145 8.95564 5.50068 8.90625 5.625 8.90625H9.375C9.60678 8.90659 9.83504 8.84965 10.0395 8.74047C10.2439 8.63129 10.4182 8.47327 10.5469 8.28047L12.0023 6.09375H17.9965L19.4531 8.28047C19.5818 8.47327 19.7561 8.63129 19.9605 8.74047C20.165 8.84965 20.3932 8.90659 20.625 8.90625H24.375C24.4993 8.90625 24.6185 8.95564 24.7065 9.04354C24.7944 9.13145 24.8438 9.25068 24.8438 9.375V22.5ZM15 9.84375C13.8875 9.84375 12.7999 10.1737 11.8749 10.7917C10.9499 11.4098 10.2289 12.2883 9.80318 13.3162C9.37744 14.344 9.26604 15.475 9.48308 16.5661C9.70013 17.6573 10.2359 18.6596 11.0225 19.4462C11.8092 20.2329 12.8115 20.7686 13.9026 20.9857C14.9938 21.2027 16.1248 21.0913 17.1526 20.6656C18.1804 20.2398 19.0589 19.5189 19.677 18.5938C20.2951 17.6688 20.625 16.5813 20.625 15.4688C20.6234 13.9774 20.0303 12.5475 18.9758 11.493C17.9212 10.4384 16.4914 9.8453 15 9.84375ZM15 18.2813C14.4437 18.2813 13.9 18.1163 13.4375 17.8073C12.9749 17.4982 12.6145 17.059 12.4016 16.545C12.1887 16.0311 12.133 15.4656 12.2415 14.9201C12.3501 14.3745 12.6179 13.8733 13.0113 13.48C13.4046 13.0867 13.9057 12.8188 14.4513 12.7103C14.9969 12.6018 15.5624 12.6575 16.0763 12.8703C16.5902 13.0832 17.0295 13.4437 17.3385 13.9062C17.6476 14.3687 17.8125 14.9125 17.8125 15.4688C17.8125 16.2147 17.5162 16.93 16.9887 17.4575C16.4613 17.9849 15.7459 18.2813 15 18.2813Z" fill="white"/>
</svg>
