<svg width="30" height="30" viewBox="0 0 30 30" fill="none" xmlns="http://www.w3.org/2000/svg">
<path d="M25.3125 4.21875H4.6875C4.0659 4.21875 3.46976 4.46568 3.03022 4.90522C2.59068 5.34476 2.34375 5.9409 2.34375 6.5625V18.75C2.34375 19.3716 2.59068 19.9677 3.03022 20.4073C3.46976 20.8468 4.0659 21.0938 4.6875 21.0938H25.3125C25.9341 21.0938 26.5302 20.8468 26.9698 20.4073C27.4093 19.9677 27.6562 19.3716 27.6562 18.75V6.5625C27.6562 5.9409 27.4093 5.34476 26.9698 4.90522C26.5302 4.46568 25.9341 4.21875 25.3125 4.21875ZM24.8438 18.2812H5.15625V7.03125H24.8438V18.2812ZM27.6562 24.375C27.6562 24.748 27.5081 25.1056 27.2444 25.3694C26.9806 25.6331 26.623 25.7812 26.25 25.7812H3.75C3.37704 25.7812 3.01935 25.6331 2.75563 25.3694C2.49191 25.1056 2.34375 24.748 2.34375 24.375C2.34375 24.002 2.49191 23.6444 2.75563 23.3806C3.01935 23.1169 3.37704 22.9688 3.75 22.9688H26.25C26.623 22.9688 26.9806 23.1169 27.2444 23.3806C27.5081 23.6444 27.6562 24.002 27.6562 24.375ZM12.1875 15V10.3125C12.1874 10.0614 12.2545 9.81493 12.3819 9.59858C12.5093 9.38223 12.6923 9.20392 12.9118 9.08218C13.1314 8.96043 13.3796 8.89969 13.6305 8.90626C13.8815 8.91283 14.1262 8.98647 14.3391 9.11953L18.0891 11.4633C18.2915 11.5896 18.4585 11.7655 18.5743 11.9742C18.69 12.1829 18.7508 12.4176 18.7508 12.6562C18.7508 12.8949 18.69 13.1296 18.5743 13.3383C18.4585 13.547 18.2915 13.7229 18.0891 13.8492L14.3391 16.193C14.1262 16.326 13.8815 16.3997 13.6305 16.4062C13.3796 16.4128 13.1314 16.3521 12.9118 16.2303C12.6923 16.1086 12.5093 15.9303 12.3819 15.7139C12.2545 15.4976 12.1874 15.2511 12.1875 15Z" fill="white"/>
</svg>
